Run_40002
nRows=4
nColumns=173

# SIMM Motion File Header:
name Run_40002
datacolumns 173
datarows 4
otherdata 1
range 4.06000000 4.09000000
endheader
time	pelvis_tilt	pelvis_list	pelvis_rotation	pelvis_tx	pelvis_ty	pelvis_tz	hip_flexion_r	hip_adduction_r	hip_rotation_r	knee_angle_r	ankle_angle_r	hip_flexion_l	hip_adduction_l	hip_rotation_l	knee_angle_l	ankle_angle_l	lumbar_extension	lumbar_bending	lumbar_rotation	arm_flex_r	arm_add_r	arm_rot_r	elbow_flex_r	pro_sup_r	arm_flex_l	arm_add_l	arm_rot_l	elbow_flex_l	pro_sup_l	subtalar_angle_r	mtp_angle_r	subtalar_angle_l	mtp_angle_l	wrist_flex_r	wrist_dev_r	wrist_flex_l	wrist_dev_l	LASI_tx	LASI_ty	LASI_tz	RASI_tx	RASI_ty	RASI_tz	LPSI_tx	LPSI_ty	LPSI_tz	RPSI_tx	RPSI_ty	RPSI_tz	RTH1_tx	RTH1_ty	RTH1_tz	RTH2_tx	RTH2_ty	RTH2_tz	RTH3_tx	RTH3_ty	RTH3_tz	LTH1_tx	LTH1_ty	LTH1_tz	LTH2_tx	LTH2_ty	LTH2_tz	LTH3_tx	LTH3_ty	LTH3_tz	RTB1_tx	RTB1_ty	RTB1_tz	RTB2_tx	RTB2_ty	RTB2_tz	RTB3_tx	RTB3_ty	RTB3_tz	RLMAL_tx	RLMAL_ty	RLMAL_tz	RMMAL_tx	RMMAL_ty	RMMAL_tz	LTB1_tx	LTB1_ty	LTB1_tz	LTB2_tx	LTB2_ty	LTB2_tz	LTB3_tx	LTB3_ty	LTB3_tz	RCAL_tx	RCAL_ty	RCAL_tz	RTOE_tx	RTOE_ty	RTOE_tz	RMT5_tx	RMT5_ty	RMT5_tz	LCAL_tx	LCAL_ty	LCAL_tz	LTOE_tx	LTOE_ty	LTOE_tz	LMT5_tx	LMT5_ty	LMT5_tz	LACR_tx	LACR_ty	LACR_tz	RACR_tx	RACR_ty	RACR_tz	CLAV_tx	CLAV_ty	CLAV_tz	C7_tx	C7_ty	C7_tz	LPSH_tx	LPSH_ty	LPSH_tz	RUA1_tx	RUA1_ty	RUA1_tz	RUA2_tx	RUA2_ty	RUA2_tz	RUA3_tx	RUA3_ty	RUA3_tz	RLEL_tx	RLEL_ty	RLEL_tz	RMEL_tx	RMEL_ty	RMEL_tz	LUA1_tx	LUA1_ty	LUA1_tz	LUA2_tx	LUA2_ty	LUA2_tz	LUA3_tx	LUA3_ty	LUA3_tz	LLEL_tx	LLEL_ty	LLEL_tz	LMEL_tx	LMEL_ty	LMEL_tz	RFAsuperior_tx	RFAsuperior_ty	RFAsuperior_tz	RFAradius_tx	RFAradius_ty	RFAradius_tz	RFAulna_tx	RFAulna_ty	RFAulna_tz	LFAsuperior_tx	LFAsuperior_ty	LFAsuperior_tz	LFAradius_tx	LFAradius_ty	LFAradius_tz	LFAulna_tx	LFAulna_ty	LFAulna_tz
      4.06000000	     -1.62839846	     -6.08073205	     -2.10664792	      0.96046709	      1.00029882	     -0.34365825	     24.74801203	     14.50862136	      4.24033335	    -30.71752731	      9.30354576	      5.49651557	     -2.25302665	     -2.01641757	    -96.69660410	     -3.26328581	     -6.48342368	     10.30538522	     -4.10347790	    -27.50015459	    -13.52019791	    -11.60616556	    108.55087843	     91.00625511	    -21.08965995	    -19.78577235	      3.05081129	    123.92989966	     98.97924908	      0.00000000	      0.00000000	      0.00000000	      0.00000000	      0.00000000	      0.00000000	      0.00000000	      0.00000000	      0.97197419	      1.03049041	     -0.45982238	      0.96953201	      1.04699136	     -0.22959872	      0.80555926	      1.06962556	     -0.39415387	      0.80290187	      1.07191105	     -0.30528482	      0.94141618	      0.79037844	     -0.18131406	      1.03459591	      0.74936000	     -0.21524225	      0.99949335	      0.63115319	     -0.22268486	      0.86635680	      0.80314003	     -0.50285977	      0.93898792	      0.69307170	     -0.50069939	      0.88775889	      0.59873330	     -0.48238448	      1.07805284	      0.39730048	     -0.28903988	      1.03550363	      0.33828894	     -0.25114795	      1.04317616	      0.21682090	     -0.30968107	      0.98880663	      0.11264301	     -0.29973077	      1.01015935	      0.13602808	     -0.38035886	      0.79366419	      0.44539161	     -0.45278392	      0.68751058	      0.53098696	     -0.46114755	      0.60281015	      0.46053338	     -0.42912211	      0.92909296	      0.09624859	     -0.37043305	      1.15462305	      0.06847220	     -0.34159003	      1.07854395	      0.05368161	     -0.27190814	      0.46531397	      0.55501234	     -0.36464611	      0.42631267	      0.33907491	     -0.40807968	      0.40544023	      0.40650651	     -0.46425105	      0.95260610	      1.54575756	     -0.48534193	      0.91595368	      1.50287059	     -0.17253920	      0.99832881	      1.46023343	     -0.30210773	      0.89010625	      1.54782181	     -0.33216569	      0.87358391	      1.50766179	     -0.51049470	      0.83195688	      1.36939398	     -0.09607613	      0.75017078	      1.33664782	     -0.13096583	      0.73530461	      1.28377151	     -0.08837070	      0.72484498	      1.21758949	     -0.06037406	      0.71318702	      1.20603880	     -0.14772498	      0.88622009	      1.43423991	     -0.57953565	      0.82065804	      1.36136290	     -0.58476410	      0.84853183	      1.32135330	     -0.64293647	      0.85299434	      1.24419389	     -0.67134404	      0.80111167	      1.22689233	     -0.59806164	      0.77181685	      1.15337877	     -0.06934293	      0.97074314	      1.15102798	     -0.11042808	      0.94959809	      1.08877539	     -0.09636576	      0.91220932	      1.18874379	     -0.61601351	      1.03075787	      1.24161816	     -0.49892872	      1.04732931	      1.17871219	     -0.52128980
      4.07000000	     -2.09954766	     -6.42469473	     -2.60511450	      0.95422569	      0.99112402	     -0.34187376	     25.98306372	     15.84475287	      4.21807239	    -36.11765478	     13.56398372	     10.14488531	     -3.09049151	     -1.84844694	   -101.93135745	     -2.83020767	     -6.97409848	     10.65975769	     -1.97504656	    -25.05964296	    -13.59837103	    -11.60075526	    107.47651991	     91.55383564	    -21.12816013	    -20.64351984	      2.25474834	    121.50987460	     99.83167897	      0.00000000	      0.00000000	      0.00000000	      0.00000000	      0.00000000	      0.00000000	      0.00000000	      0.00000000	      0.96805133	      1.02059704	     -0.45797876	      0.96493639	      1.03811832	     -0.22726727	      0.79921179	      1.06167094	     -0.39335777	      0.79680319	      1.06502536	     -0.30468298	      0.93561961	      0.78498052	     -0.18110401	      1.02849824	      0.74160622	     -0.21428484	      0.99478917	      0.62509182	     -0.22606680	      0.87197688	      0.79372524	     -0.50189018	      0.95112261	      0.68756975	     -0.50178979	      0.90667583	      0.59140861	     -0.48422777	      1.06378875	      0.39251129	     -0.29737994	      1.01865111	      0.33642435	     -0.25832978	      1.01619871	      0.21451970	     -0.31643804	      0.95470256	      0.11440062	     -0.30627728	      0.97562863	      0.13559225	     -0.38661136	      0.81940279	      0.44196570	     -0.45389622	      0.71482910	      0.52846825	     -0.46520518	      0.62894034	      0.45952019	     -0.43242339	      0.89119905	      0.09723083	     -0.37420780	      1.11734128	      0.06721261	     -0.34395785	      1.04045176	      0.05499419	     -0.27491712	      0.49188809	      0.55692659	     -0.37178224	      0.45216436	      0.33998300	     -0.40939429	      0.43187435	      0.40600668	     -0.46756908	      0.95082233	      1.53642355	     -0.48694366	      0.91914431	      1.49339041	     -0.17070420	      1.00012896	      1.45108290	     -0.30273094	      0.89131309	      1.54001566	     -0.33098319	      0.87102009	      1.49831092	     -0.50992772	      0.84024424	      1.35442144	     -0.09379488	      0.75793918	      1.31987604	     -0.12521044	      0.74569748	      1.26681679	     -0.08193157	      0.73830872	      1.20109639	     -0.05431043	      0.72412512	      1.18901113	     -0.14164179	      0.88047438	      1.42534574	     -0.57951245	      0.81408837	      1.35349981	     -0.58435629	      0.83916160	      1.31443690	     -0.64440904	      0.84156990	      1.23845434	     -0.67467846	      0.79147316	      1.22007220	     -0.60006419	      0.78599974	      1.13822673	     -0.06473724	      0.98386110	      1.13906945	     -0.11050217	      0.96400504	      1.07676004	     -0.09497233	      0.90076633	      1.17913048	     -0.62353287	      1.02500717	      1.22208879	     -0.50926105	      1.03925667	      1.16026272	     -0.53556164
      4.08000000	     -2.54149993	     -6.55662351	     -3.09933755	      0.94739971	      0.98331865	     -0.34024184	     26.73865051	     16.83782668	      4.54980658	    -40.69742184	     16.66277024	     15.00068409	     -3.57809436	     -1.42288881	   -106.40237797	     -2.56403312	     -7.61843514	     10.72676580	      0.31055439	    -22.48925784	    -13.59925148	    -11.78023464	    106.41096071	     92.48261191	    -20.99598288	    -21.35800264	      1.38246712	    119.27741854	    101.28782981	      0.00000000	      0.00000000	      0.00000000	      0.00000000	      0.00000000	      0.00000000	      0.00000000	      0.00000000	      0.96318749	      1.01200614	     -0.45653312	      0.95943954	      1.03039822	     -0.22407022	      0.79280510	      1.05483215	     -0.39305111	      0.79021311	      1.05919628	     -0.30434499	      0.92870715	      0.77959263	     -0.18161960	      1.02157376	      0.73594122	     -0.21356082	      0.98845577	      0.62024756	     -0.22836197	      0.87729474	      0.78723873	     -0.50078219	      0.96330306	      0.68550062	     -0.50215734	      0.92640901	      0.58810711	     -0.48564602	      1.04774401	      0.38814523	     -0.30320317	      0.99961477	      0.33533597	     -0.26260442	      0.98826377	      0.21322348	     -0.31971279	      0.91982740	      0.11613020	     -0.30984207	      0.94117277	      0.13620528	     -0.38960923	      0.84674897	      0.44057779	     -0.45405717	      0.74267038	      0.52645011	     -0.46889648	      0.65645142	      0.45752327	     -0.43551601	      0.85361949	      0.09862983	     -0.37597692	      1.07986399	      0.06599739	     -0.34569456	      1.00239409	      0.05530219	     -0.27638101	      0.51772713	      0.55568793	     -0.37968784	      0.48056903	      0.33719411	     -0.41052984	      0.46062631	      0.40112546	     -0.47127259	      0.94935984	      1.52816291	     -0.48865260	      0.92265721	      1.48539969	     -0.16929313	      1.00171612	      1.44325418	     -0.30362258	      0.89258626	      1.53405820	     -0.33005938	      0.86854638	      1.49077871	     -0.50962658	      0.84954048	      1.34095316	     -0.09267732	      0.76629211	      1.30464023	     -0.11974948	      0.75685303	      1.25105320	     -0.07618703	      0.75352974	      1.18592432	     -0.04902973	      0.73664802	      1.17289878	     -0.13607410	      0.87458736	      1.41736239	     -0.57929168	      0.80666545	      1.34604463	     -0.58304445	      0.82866895	      1.30825068	     -0.64490196	      0.82952812	      1.23404289	     -0.67680452	      0.78117834	      1.21429002	     -0.60100355	      0.80190073	      1.12473344	     -0.06078533	      0.99809401	      1.12851380	     -0.11142100	      0.97931319	      1.06623644	     -0.09403120	      0.88888043	      1.17153536	     -0.63048030	      1.01796469	      1.20466710	     -0.51973018	      1.03033450	      1.14431345	     -0.54999062
      4.09000000	     -2.88779642	     -6.36454944	     -3.42633768	      0.94103474	      0.97758154	     -0.33923512	     26.51145917	     17.23699153	      5.16053331	    -43.85758032	     19.28385055	     19.82628358	     -3.49946788	     -0.73897854	   -109.82947139	     -2.15533381	     -8.30452508	     10.38977184	      2.50184998	    -19.99557277	    -13.52000617	    -12.16638117	    105.47776944	     94.09063925	    -20.83993609	    -21.87675976	      0.51937383	    117.24450219	    102.78469544	      0.00000000	      0.00000000	      0.00000000	      0.00000000	      0.00000000	      0.00000000	      0.00000000	      0.00000000	      0.95784123	      1.00593393	     -0.45623821	      0.95381369	      1.02432157	     -0.22046308	      0.78717001	      1.04981884	     -0.39276618	      0.78472868	      1.05464424	     -0.30431850	      0.92048717	      0.77406688	     -0.18239310	      1.01329392	      0.73080012	     -0.21415822	      0.97860238	      0.61514808	     -0.22957487	      0.88261004	      0.78401743	     -0.50001291	      0.97591060	      0.68748062	     -0.50186973	      0.94647542	      0.58914874	     -0.48637779	      1.02857095	      0.38230949	     -0.30630294	      0.97763325	      0.33250540	     -0.26439552	      0.95823862	      0.21082320	     -0.32071400	      0.88300290	      0.11709296	     -0.31045892	      0.90523141	      0.13650696	     -0.39016943	      0.87506134	      0.44154631	     -0.45398656	      0.77010848	      0.52518882	     -0.47193636	      0.68456736	      0.45484768	     -0.43847304	      0.81566779	      0.09952170	     -0.37610993	      1.04165188	      0.06479008	     -0.34629096	      0.96385843	      0.05520761	     -0.27609189	      0.54160051	      0.55121286	     -0.38764806	      0.51179841	      0.33083458	     -0.41187655	      0.49160811	      0.39211218	     -0.47534119	      0.94817758	      1.52160412	     -0.49017057	      0.92665950	      1.47956999	     -0.16892272	      1.00261589	      1.43715537	     -0.30506392	      0.89358285	      1.52992277	     -0.32959701	      0.86612645	      1.48591047	     -0.50945549	      0.85944141	      1.33089880	     -0.09264649	      0.77518254	      1.29241097	     -0.11570615	      0.76865599	      1.23825715	     -0.07184692	      0.76996227	      1.17365220	     -0.04504766	      0.75016187	      1.15917173	     -0.13133596	      0.86857015	      1.41164671	     -0.57869184	      0.79836578	      1.34054796	     -0.58048555	      0.81748969	      1.30417705	     -0.64408371	      0.81718540	      1.23174314	     -0.67737447	      0.77098657	      1.21058046	     -0.60087908	      0.81928754	      1.11408044	     -0.05781696	      1.01317657	      1.12039135	     -0.11374753	      0.99536888	      1.05834185	     -0.09388453	      0.87660122	      1.16636102	     -0.63633721	      1.01006645	      1.19012582	     -0.52997062	      1.02041368	      1.13123800	     -0.56363505
